<svg width="100" height="100" viewBox="0 0 100 100" fill="none" xmlns="http://www.w3.org/2000/svg">
<path d="M0 28H6.25V32H0V60H6.25V64H0V92H6.25V100H93.75V92H100V64H93.75V60H100V32H93.75V28H100V0H0V28ZM89.5833 96H10.4167V92H89.5833V96ZM95.8333 68V88H93.75H6.25H4.16667V68H6.25H93.75H95.8333ZM89.5833 64H10.4167V60H89.5833V64ZM95.8333 36V56H93.75H6.25H4.16667V36H6.25H93.75H95.8333ZM89.5833 32H10.4167V28H89.5833V32ZM4.16667 4H95.8333V24H93.75H6.25H4.16667V4Z" fill="#6700EE"/>
<path d="M14.5833 10H10.4167V18H14.5833V10Z" fill="#6700EE"/>
<path d="M25 10H20.8333V18H25V10Z" fill="#6700EE"/>
<path d="M35.4167 10H31.25V18H35.4167V10Z" fill="#6700EE"/>
<path d="M45.8334 10H41.6667V18H45.8334V10Z" fill="#6700EE"/>
<path d="M89.5834 12H85.4167V16H89.5834V12Z" fill="#6700EE"/>
<path d="M79.1667 12H52.0833V16H79.1667V12Z" fill="#6700EE"/>
<path d="M14.5833 42H10.4167V50H14.5833V42Z" fill="#6700EE"/>
<path d="M25 42H20.8333V50H25V42Z" fill="#6700EE"/>
<path d="M35.4167 42H31.25V50H35.4167V42Z" fill="#6700EE"/>
<path d="M45.8334 42H41.6667V50H45.8334V42Z" fill="#6700EE"/>
<path d="M89.5834 44H85.4167V48H89.5834V44Z" fill="#6700EE"/>
<path d="M79.1667 44H52.0833V48H79.1667V44Z" fill="#6700EE"/>
<path d="M14.5833 74H10.4167V82H14.5833V74Z" fill="#6700EE"/>
<path d="M25 74H20.8333V82H25V74Z" fill="#6700EE"/>
<path d="M35.4167 74H31.25V82H35.4167V74Z" fill="#6700EE"/>
<path d="M45.8334 74H41.6667V82H45.8334V74Z" fill="#6700EE"/>
<path d="M89.5834 76H85.4167V80H89.5834V76Z" fill="#6700EE"/>
<path d="M79.1667 76H52.0833V80H79.1667V76Z" fill="#6700EE"/>
</svg>
